<svg width="174" height="54" viewBox="0 0 174 54" fill="none" xmlns="http://www.w3.org/2000/svg">
<path d="M27.191 29V14.303H31.8494L33.096 14.9591C34.1021 14.303 35.4362 13.975 37.0983 13.975C38.1919 13.975 39.1542 14.0952 39.9853 14.3358C40.8163 14.5545 41.4834 14.7951 41.9864 15.0575C42.5113 15.32 42.8394 15.5059 42.9706 15.6152L41.3303 19.88C41.1116 19.7269 40.696 19.5191 40.0837 19.2567C39.4932 18.9942 38.7933 18.7537 37.9841 18.535C37.1749 18.2944 36.3219 18.1741 35.4253 18.1741H35.0644C34.452 18.1741 33.9818 18.2834 33.6537 18.5022C33.3257 18.699 33.1617 19.1473 33.1617 19.8472V29H27.191ZM49.951 29C48.5076 29 47.425 28.7922 46.7033 28.3767C45.9815 27.9612 45.5004 27.3925 45.2598 26.6708C45.0411 25.9272 44.9318 25.0742 44.9318 24.1119V19.1583C44.9318 18.2397 45.052 17.4196 45.2926 16.6978C45.5332 15.9542 46.0034 15.3747 46.7033 14.9591C47.425 14.5217 48.5076 14.303 49.951 14.303H59.071C60.5145 14.303 61.5861 14.5217 62.286 14.9591C63.0077 15.3747 63.4779 15.9542 63.6967 16.6978C63.9372 17.4196 64.0575 18.2397 64.0575 19.1583V24.1119C64.0575 25.0742 63.9372 25.9272 63.6967 26.6708C63.4779 27.3925 63.0077 27.9612 62.286 28.3767C61.5861 28.7922 60.5145 29 59.071 29H49.951ZM52.5755 24.8665H56.4794C57.5292 24.8665 58.0431 24.4291 58.0213 23.5542V19.7488C58.0213 19.3114 57.901 18.9833 57.6604 18.7646C57.4417 18.5459 57.048 18.4365 56.4794 18.4365H52.6083C52.0397 18.4365 51.6351 18.5459 51.3945 18.7646C51.1539 18.9833 51.0336 19.3114 51.0336 19.7488V23.5542C51.0118 24.4291 51.5257 24.8665 52.5755 24.8665ZM73.1322 29L66.0133 14.303H72.6073L75.7238 22.3404L76.5768 24.7024H76.9048L77.7578 22.3404L80.9071 14.303H87.4355L86.9106 16.3042L80.3822 29H73.1322ZM94.7463 29C93.3028 29 92.1874 28.7922 91.4001 28.3767C90.6346 27.9612 90.1097 27.3925 89.8254 26.6708C89.5411 25.9272 89.3989 25.0742 89.3989 24.1119V19.1583C89.3989 18.2834 89.5411 17.4852 89.8254 16.7634C90.1316 16.0199 90.6674 15.4293 91.4329 14.9919C92.1984 14.5327 93.3028 14.303 94.7463 14.303H101.537C103.243 14.303 104.544 14.5108 105.441 14.9263C106.36 15.32 106.983 15.8886 107.311 16.6322C107.661 17.354 107.836 18.196 107.836 19.1583V23.3574H102.095C100.126 23.3574 98.6283 23.3137 97.6004 23.2262C96.5943 23.1387 95.8835 23.084 95.468 23.0622V23.5542C95.4461 24.4291 95.971 24.8665 97.0427 24.8665H98.0597C99.8093 24.8665 101.428 24.8337 102.915 24.7681C104.402 24.6806 105.507 24.604 106.228 24.5384L108.197 27.655C108.197 27.8737 108.011 28.0814 107.639 28.2783C107.267 28.4751 106.611 28.6501 105.671 28.8032C104.752 28.9344 103.44 29 101.734 29H94.7463ZM95.468 20.2081H101.767V19.7488C101.767 19.3114 101.723 19.0052 101.635 18.8302C101.57 18.6552 101.34 18.5459 100.947 18.5022C100.553 18.4584 99.8859 18.4365 98.9454 18.4365H97.0427C95.9929 18.4365 95.468 18.874 95.468 19.7488V20.2081ZM111.48 29V14.303H116.138L117.385 14.9591C118.391 14.303 119.725 13.975 121.387 13.975C122.481 13.975 123.443 14.0952 124.274 14.3358C125.105 14.5545 125.772 14.7951 126.275 15.0575C126.8 15.32 127.128 15.5059 127.26 15.6152L125.619 19.88C125.401 19.7269 124.985 19.5191 124.373 19.2567C123.782 18.9942 123.082 18.7537 122.273 18.535C121.464 18.2944 120.611 18.1741 119.714 18.1741H119.353C118.741 18.1741 118.271 18.2834 117.943 18.5022C117.615 18.699 117.451 19.1473 117.451 19.8472V29H111.48ZM133.123 29C131.199 29 129.821 28.6391 128.99 27.9174C128.159 27.1957 127.743 25.9928 127.743 24.3088C127.743 22.756 128.17 21.6296 129.023 20.9298C129.897 20.2299 131.264 19.88 133.123 19.88H134.14C135.365 19.88 136.535 19.9237 137.651 20.0112C138.766 20.0987 139.728 20.1862 140.537 20.2737V19.7488C140.537 19.4426 140.472 19.1473 140.341 18.863C140.209 18.5787 139.75 18.4365 138.963 18.4365H137.323C134.939 18.4365 133.102 18.4803 131.811 18.5678C130.521 18.6334 129.723 18.699 129.416 18.7646L129.055 15.2872C129.055 15.0685 129.438 14.8935 130.204 14.7623C130.969 14.6092 132.019 14.4999 133.353 14.4342C134.687 14.3468 136.207 14.303 137.913 14.303H141.194C142.637 14.303 143.742 14.5217 144.507 14.9591C145.272 15.3747 145.797 15.9433 146.082 16.665C146.366 17.3868 146.508 18.2178 146.508 19.1583V29H141.85L140.57 28.3439C140.045 28.4532 139.203 28.5954 138.044 28.7704C136.907 28.9235 135.595 29 134.108 29H133.123ZM135.026 25.1289H139.553C140.034 25.1289 140.319 25.0852 140.406 24.9977C140.494 24.9102 140.537 24.6368 140.537 24.1776V23.0294H135.026C134.611 23.0294 134.304 23.1059 134.108 23.259C133.911 23.4121 133.812 23.7073 133.812 24.1447C133.812 24.5603 133.911 24.8337 134.108 24.9649C134.304 25.0742 134.611 25.1289 135.026 25.1289Z" fill="white"/>
<path d="M69.2462 43C68.721 43 68.3165 42.9317 68.0329 42.7951C67.7493 42.6586 67.5444 42.4852 67.4184 42.2751C67.3028 42.065 67.2293 41.8444 67.1977 41.6133C67.1767 41.3822 67.1662 41.1721 67.1662 40.983V37.9575C67.1662 37.8 67.1767 37.6109 67.1977 37.3903C67.2293 37.1592 67.3028 36.9333 67.4184 36.7127C67.5444 36.4921 67.7493 36.3082 68.0329 36.1612C68.327 36.0141 68.7315 35.9406 69.2462 35.9406H71.4366C72.7497 35.9406 73.6794 35.9773 74.2257 36.0509C74.7824 36.1139 75.0608 36.1822 75.0608 36.2557L74.7457 37.4533C74.4515 37.4323 74.0786 37.4113 73.6269 37.3903C73.1752 37.3588 72.6867 37.3377 72.1614 37.3272C71.6467 37.3062 71.1424 37.2957 70.6487 37.2957H69.845C69.3408 37.2957 69.0887 37.5058 69.0887 37.926V41.0145C69.0782 41.4347 69.3303 41.6448 69.845 41.6448H70.6487C71.2159 41.6448 71.7675 41.6396 72.3032 41.6291C72.8495 41.6081 73.3485 41.5871 73.8002 41.5661C74.2519 41.5345 74.6144 41.5083 74.8875 41.4873L75.5178 42.5115C75.5178 42.8372 74.483 43 72.4135 43H69.2462ZM78.5408 43C77.837 43 77.3117 42.8582 76.965 42.5745C76.6289 42.2909 76.4608 41.8287 76.4608 41.1879V37.9575C76.4608 37.8 76.4713 37.6109 76.4923 37.3903C76.5238 37.1592 76.5974 36.9333 76.7129 36.7127C76.839 36.4921 77.0438 36.3082 77.3275 36.1612C77.6216 36.0141 78.026 35.9406 78.5408 35.9406H82.8899C83.4152 35.9406 83.8196 36.0141 84.1033 36.1612C84.3869 36.3082 84.5865 36.4921 84.702 36.7127C84.8281 36.9333 84.9016 37.1592 84.9226 37.3903C84.9542 37.6109 84.9699 37.8 84.9699 37.9575V40.983C84.9699 41.1721 84.9542 41.3822 84.9226 41.6133C84.9016 41.8444 84.8281 42.065 84.702 42.2751C84.576 42.4852 84.3711 42.6586 84.0875 42.7951C83.8039 42.9317 83.4047 43 82.8899 43H78.5408ZM79.1396 41.6448H82.2911C82.8059 41.6448 83.0632 41.4347 83.0632 41.0145V37.926C83.0632 37.5058 82.8059 37.2957 82.2911 37.2957H79.1396C78.6353 37.2957 78.3832 37.5058 78.3832 37.926V41.0145C78.3832 41.4347 78.6353 41.6448 79.1396 41.6448ZM86.6977 43V35.9406H87.9899L88.6202 36.2557C89.0614 36.1717 89.5919 36.0981 90.2117 36.0351C90.8315 35.9721 91.5406 35.9406 92.339 35.9406H93.1268C93.6521 35.9406 94.0566 36.0141 94.3402 36.1612C94.6238 36.3082 94.8234 36.4921 94.939 36.7127C95.065 36.9333 95.1386 37.1592 95.1596 37.3903C95.1911 37.6109 95.2069 37.8 95.2069 37.9575V43H93.2844V37.926C93.2844 37.5058 93.0323 37.2957 92.5281 37.2957H89.0929C88.8933 37.2957 88.762 37.3167 88.6989 37.3588C88.6464 37.3903 88.6202 37.4848 88.6202 37.6424V43H86.6977ZM98.8039 43C98.1001 43 97.6011 42.9632 97.3069 42.8897C97.0128 42.8162 96.8657 42.7426 96.8657 42.6691L97.3385 41.4873C97.6431 41.5188 98.1999 41.5555 99.0088 41.5976C99.8282 41.6291 100.837 41.6448 102.034 41.6448H102.822C103.085 41.6448 103.248 41.5766 103.311 41.44C103.384 41.2929 103.421 41.0986 103.421 40.857C103.421 40.6153 103.379 40.421 103.295 40.2739C103.221 40.1269 103.064 40.0533 102.822 40.0533H98.9457C98.2104 40.0533 97.6799 39.9168 97.3542 39.6436C97.0285 39.36 96.8657 38.9398 96.8657 38.383V37.7527C96.8657 37.6056 96.8815 37.4323 96.913 37.2327C96.9445 37.0331 97.0233 36.8335 97.1494 36.6339C97.2754 36.4343 97.4803 36.2715 97.7639 36.1454C98.0475 36.0089 98.4415 35.9406 98.9457 35.9406H103.295C103.925 35.9406 104.372 35.9773 104.634 36.0509C104.897 36.1244 105.028 36.1979 105.028 36.2715L104.871 37.4533C104.566 37.4218 104.004 37.3903 103.185 37.3588C102.365 37.3167 101.362 37.2957 100.175 37.2957H99.3869C99.1243 37.2957 98.9562 37.3693 98.8827 37.5163C98.8197 37.6529 98.7882 37.8157 98.7882 38.0048C98.7882 38.2044 98.8197 38.3725 98.8827 38.5091C98.9562 38.6351 99.1243 38.6982 99.3869 38.6982H103.263C103.978 38.6982 104.503 38.8452 104.839 39.1394C105.175 39.4335 105.343 39.8064 105.343 40.2582V41.1879C105.343 41.377 105.328 41.5766 105.296 41.7867C105.275 41.9968 105.202 42.1964 105.075 42.3855C104.949 42.564 104.745 42.7111 104.461 42.8267C104.177 42.9422 103.778 43 103.263 43H98.8039ZM108.994 43C108.29 43 107.765 42.8582 107.419 42.5745C107.082 42.2909 106.914 41.8287 106.914 41.1879V37.9575C106.914 37.8 106.925 37.6109 106.946 37.3903C106.977 37.1592 107.051 36.9333 107.166 36.7127C107.292 36.4921 107.497 36.3082 107.781 36.1612C108.075 36.0141 108.48 35.9406 108.994 35.9406H113.343C113.869 35.9406 114.273 36.0141 114.557 36.1612C114.84 36.3082 115.04 36.4921 115.156 36.7127C115.282 36.9333 115.355 37.1592 115.376 37.3903C115.408 37.6109 115.423 37.8 115.423 37.9575V40.983C115.423 41.1721 115.408 41.3822 115.376 41.6133C115.355 41.8444 115.282 42.065 115.156 42.2751C115.029 42.4852 114.825 42.6586 114.541 42.7951C114.257 42.9317 113.858 43 113.343 43H108.994ZM109.593 41.6448H112.745C113.259 41.6448 113.517 41.4347 113.517 41.0145V37.926C113.517 37.5058 113.259 37.2957 112.745 37.2957H109.593C109.089 37.2957 108.837 37.5058 108.837 37.926V41.0145C108.837 41.4347 109.089 41.6448 109.593 41.6448ZM110.617 34.8375C110.617 34.701 110.665 34.5119 110.759 34.2703C110.864 34.0181 110.98 33.7713 111.106 33.5296C111.232 33.2775 111.332 33.0884 111.405 32.9624C111.5 32.8153 111.615 32.705 111.752 32.6315C111.899 32.5474 112.099 32.5054 112.351 32.5054H112.524C112.934 32.5054 113.139 32.6577 113.139 32.9624C113.139 33.1199 113.039 33.3195 112.839 33.5612C112.65 33.8028 112.419 34.0391 112.146 34.2703C111.883 34.4909 111.636 34.6747 111.405 34.8218C111.237 34.9268 111.064 35.0056 110.885 35.0581C110.707 35.1107 110.617 35.0371 110.617 34.8375ZM117.151 43V35.9406H118.443L119.042 36.2557C119.315 36.1086 119.609 35.9931 119.925 35.9091C120.24 35.825 120.639 35.783 121.122 35.783C121.889 35.783 122.509 35.867 122.982 36.0351C123.465 36.2032 123.785 36.3293 123.943 36.4133L123.391 37.7842C123.265 37.7212 123.055 37.6424 122.761 37.5478C122.477 37.4428 122.141 37.3483 121.752 37.2642C121.364 37.1802 120.938 37.1382 120.476 37.1382H120.303C119.799 37.1382 119.468 37.2379 119.31 37.4375C119.163 37.6371 119.084 37.9681 119.074 38.4303V43H117.151ZM126.968 43C126.443 43 126.038 42.9317 125.755 42.7951C125.471 42.6586 125.266 42.4852 125.14 42.2751C125.024 42.065 124.951 41.8444 124.919 41.6133C124.898 41.3822 124.888 41.1721 124.888 40.983V37.9575C124.888 37.8 124.898 37.6109 124.919 37.3903C124.951 37.1592 125.024 36.9333 125.14 36.7127C125.266 36.4921 125.471 36.3082 125.755 36.1612C126.049 36.0141 126.453 35.9406 126.968 35.9406H129.158C130.471 35.9406 131.401 35.9773 131.947 36.0509C132.504 36.1139 132.782 36.1822 132.782 36.2557L132.467 37.4533C132.173 37.4323 131.8 37.4113 131.349 37.3903C130.897 37.3588 130.408 37.3377 129.883 37.3272C129.368 37.3062 128.864 37.2957 128.37 37.2957H127.567C127.062 37.2957 126.81 37.5058 126.81 37.926V41.0145C126.8 41.4347 127.052 41.6448 127.567 41.6448H128.37C128.938 41.6448 129.489 41.6396 130.025 41.6291C130.571 41.6081 131.07 41.5871 131.522 41.5661C131.974 41.5345 132.336 41.5083 132.609 41.4873L133.239 42.5115C133.239 42.8372 132.205 43 130.135 43H126.968ZM135.459 34.9478C135.07 34.9478 134.786 34.869 134.608 34.7115C134.429 34.5539 134.34 34.2913 134.34 33.9236C134.34 33.5454 134.424 33.2828 134.592 33.1357C134.771 32.9781 135.06 32.8993 135.459 32.8993C135.858 32.8993 136.147 32.9781 136.325 33.1357C136.504 33.2828 136.593 33.5454 136.593 33.9236C136.593 34.2808 136.504 34.5434 136.325 34.7115C136.147 34.869 135.858 34.9478 135.459 34.9478ZM134.498 43V35.9406H136.42V43H134.498ZM140.402 43C139.698 43 139.173 42.8582 138.826 42.5745C138.49 42.2909 138.322 41.8287 138.322 41.1879V37.9575C138.322 37.8 138.332 37.6109 138.353 37.3903C138.385 37.1592 138.458 36.9333 138.574 36.7127C138.7 36.4921 138.905 36.3082 139.189 36.1612C139.483 36.0141 139.887 35.9406 140.402 35.9406H144.751C145.276 35.9406 145.681 36.0141 145.964 36.1612C146.248 36.3082 146.448 36.4921 146.563 36.7127C146.689 36.9333 146.763 37.1592 146.784 37.3903C146.815 37.6109 146.831 37.8 146.831 37.9575V40.983C146.831 41.1721 146.815 41.3822 146.784 41.6133C146.763 41.8444 146.689 42.065 146.563 42.2751C146.437 42.4852 146.232 42.6586 145.949 42.7951C145.665 42.9317 145.266 43 144.751 43H140.402ZM141.001 41.6448H144.152C144.667 41.6448 144.924 41.4347 144.924 41.0145V37.926C144.924 37.5058 144.667 37.2957 144.152 37.2957H141.001C140.496 37.2957 140.244 37.5058 140.244 37.926V41.0145C140.244 41.4347 140.496 41.6448 141.001 41.6448Z" fill="#A6F6FF"/>
</svg>
